<?xml version="1.0" standalone="no"?>
<!DOCTYPE svg PUBLIC "-//W3C//DTD SVG 20010904//EN"
 "http://www.w3.org/TR/2001/REC-SVG-20010904/DTD/svg10.dtd">
<svg version="1.0" xmlns="http://www.w3.org/2000/svg"
 width="530.000000pt" height="530.000000pt" viewBox="0 0 530.000000 530.000000"
 preserveAspectRatio="xMidYMid meet">

<g transform="translate(0.000000,530.000000) scale(0.100000,-0.100000)"
fill="#000000" stroke="none">
<path d="M2983 3123 l-39 -38 -33 -192 -33 -192 23 -32 22 -31 -34 -32 c-34
-31 -35 -34 -68 -228 l-34 -196 24 -31 c13 -16 26 -30 29 -30 3 0 21 14 40 31
33 31 35 36 67 212 39 213 39 217 14 247 l-20 24 33 35 c32 33 35 44 65 212
17 98 31 188 31 200 -1 13 -11 36 -24 51 l-23 29 -40 -39z"/>
<path d="M4403 3123 l-39 -38 -33 -192 -33 -192 23 -32 22 -31 -34 -32 c-34
-31 -35 -34 -68 -228 l-34 -196 24 -31 c13 -16 26 -30 29 -30 3 0 21 14 40 31
33 31 35 36 67 212 39 213 39 217 14 247 l-20 24 33 35 c32 33 35 44 65 212
17 98 31 188 31 200 -1 13 -11 36 -24 51 l-23 29 -40 -39z"/>
<path d="M991 3124 c-17 -14 -31 -30 -31 -34 0 -5 12 -22 26 -39 l26 -31 157
0 157 0 42 31 42 31 -27 33 -28 34 -167 0 c-165 1 -167 1 -197 -25z"/>
<path d="M1582 3130 c-44 -27 -48 -44 -20 -79 l23 -30 154 0 154 -1 43 33 c24
17 44 35 44 38 0 3 -11 18 -25 33 l-24 26 -158 0 c-140 0 -162 -2 -191 -20z"/>
<path d="M2240 3146 c0 -3 23 -32 50 -65 l51 -61 153 0 153 0 44 38 43 39 -27
26 -26 27 -221 0 c-121 0 -220 -2 -220 -4z"/>
<path d="M3727 3125 c-20 -14 -37 -29 -37 -33 0 -5 15 -22 33 -40 l33 -32 150
0 150 0 42 32 c23 18 42 38 42 44 0 7 -12 22 -26 33 -25 19 -40 21 -188 21
-156 0 -163 -1 -199 -25z"/>
<path d="M2177 2924 l-36 -207 22 -28 c28 -35 39 -36 77 -1 28 25 32 38 55
175 l26 147 -47 58 c-25 31 -49 58 -53 60 -4 1 -24 -91 -44 -204z"/>
<path d="M897 3046 c-20 -18 -37 -37 -37 -42 0 -5 -12 -75 -26 -155 l-26 -147
24 -32 23 -32 -34 -27 c-32 -26 -34 -34 -57 -162 -30 -167 -31 -191 -10 -224
l17 -26 27 20 c15 12 35 27 45 35 13 10 25 54 44 170 l27 156 -21 28 -21 29
33 34 c31 32 35 43 60 187 l26 154 -26 34 c-14 19 -27 34 -29 34 -1 0 -19 -15
-39 -34z"/>
<path d="M1478 3045 c-21 -18 -38 -37 -38 -42 0 -4 -12 -74 -26 -155 l-26
-147 23 -32 22 -32 -32 -27 c-32 -25 -34 -32 -62 -186 -28 -152 -29 -160 -13
-191 10 -18 22 -33 28 -33 6 1 28 16 49 34 38 34 38 35 64 189 l27 154 -22 29
-21 29 34 35 c31 33 34 45 59 188 l27 152 -27 35 c-14 19 -27 35 -28 35 0 0
-18 -16 -38 -35z"/>
<path d="M1951 3042 l-43 -38 -28 -153 -27 -153 24 -29 24 -28 -34 -30 c-32
-29 -35 -36 -61 -186 l-28 -155 27 -35 26 -36 32 27 c18 15 35 32 38 38 4 6
19 80 33 163 l27 153 -23 31 -23 31 33 28 c31 25 34 35 57 160 30 158 31 201
8 229 l-18 20 -44 -37z"/>
<path d="M2729 3067 c-73 -57 -68 -47 -94 -193 -30 -165 -30 -163 -4 -193 19
-24 21 -24 47 -9 46 28 60 59 81 180 26 143 26 180 4 207 -15 17 -21 18 -34 8z"/>
<path d="M3642 3055 c-37 -31 -36 -27 -67 -200 l-25 -139 27 -28 c15 -15 29
-28 32 -28 3 0 20 13 38 28 30 25 34 35 58 170 14 79 23 152 20 161 -3 10 -16
28 -29 40 l-23 22 -31 -26z"/>
<path d="M4139 3067 c-73 -55 -69 -47 -96 -206 l-27 -151 24 -25 c31 -32 40
-32 77 8 28 29 33 45 56 177 22 128 23 148 11 172 -18 34 -26 39 -45 25z"/>
<path d="M2243 2668 l-32 -33 24 -27 24 -28 153 0 153 0 38 31 37 31 -21 29
-20 29 -163 0 -162 0 -31 -32z"/>
<path d="M3652 2671 l-34 -29 23 -31 23 -31 158 0 c158 0 159 0 194 28 40 32
42 41 11 70 -22 21 -32 22 -183 22 l-159 -1 -33 -28z"/>
<path d="M4028 2597 l-38 -32 -33 -188 -33 -187 24 -35 c14 -19 28 -35 32 -35
3 0 21 15 39 34 32 33 35 43 67 222 l33 188 -25 33 c-14 18 -26 33 -27 33 -1
-1 -19 -15 -39 -33z"/>
<path d="M2145 2588 c-34 -32 -35 -36 -67 -221 l-32 -187 28 -29 29 -30 36 29
36 29 34 196 34 196 -23 24 c-13 14 -27 25 -32 25 -5 0 -24 -15 -43 -32z"/>
<path d="M3554 2592 c-29 -26 -32 -36 -63 -214 -34 -194 -34 -204 6 -240 18
-17 21 -16 55 20 35 36 37 41 69 224 l33 188 -24 25 c-29 31 -37 31 -76 -3z"/>
<path d="M832 2225 c-46 -40 -46 -57 -1 -80 21 -11 67 -15 185 -15 l156 0 39
31 39 30 -28 35 -27 34 -161 0 -160 0 -42 -35z"/>
<path d="M1410 2221 l-45 -39 25 -27 25 -26 172 3 c172 3 173 3 199 30 l27 27
-27 35 -27 36 -152 0 -152 0 -45 -39z"/>
</g>
</svg>
